<svg width="25" height="25" viewBox="0 0 25 25" fill="none" xmlns="http://www.w3.org/2000/svg">
<path d="M18.5 21.5H16.5C15.7044 21.5 14.9413 21.1839 14.3787 20.6213C13.8161 20.0587 13.5 19.2956 13.5 18.5V16.5C13.5 15.7044 13.8161 14.9413 14.3787 14.3787C14.9413 13.8161 15.7044 13.5 16.5 13.5H18.5C19.2956 13.5 20.0587 13.8161 20.6213 14.3787C21.1839 14.9413 21.5 15.7044 21.5 16.5V18.5C21.5 19.2956 21.1839 20.0587 20.6213 20.6213C20.0587 21.1839 19.2956 21.5 18.5 21.5ZM16.5 15.5C16.2348 15.5 15.9804 15.6054 15.7929 15.7929C15.6054 15.9804 15.5 16.2348 15.5 16.5V18.5C15.5 18.7652 15.6054 19.0196 15.7929 19.2071C15.9804 19.3946 16.2348 19.5 16.5 19.5H18.5C18.7652 19.5 19.0196 19.3946 19.2071 19.2071C19.3946 19.0196 19.5 18.7652 19.5 18.5V16.5C19.5 16.2348 19.3946 15.9804 19.2071 15.7929C19.0196 15.6054 18.7652 15.5 18.5 15.5H16.5ZM8.5 21.5H6.5C5.70435 21.5 4.94129 21.1839 4.37868 20.6213C3.81607 20.0587 3.5 19.2956 3.5 18.5V16.5C3.5 15.7044 3.81607 14.9413 4.37868 14.3787C4.94129 13.8161 5.70435 13.5 6.5 13.5H8.5C9.29565 13.5 10.0587 13.8161 10.6213 14.3787C11.1839 14.9413 11.5 15.7044 11.5 16.5V18.5C11.5 19.2956 11.1839 20.0587 10.6213 20.6213C10.0587 21.1839 9.29565 21.5 8.5 21.5ZM6.5 15.5C6.23478 15.5 5.98043 15.6054 5.79289 15.7929C5.60536 15.9804 5.5 16.2348 5.5 16.5V18.5C5.5 18.7652 5.60536 19.0196 5.79289 19.2071C5.98043 19.3946 6.23478 19.5 6.5 19.5H8.5C8.76522 19.5 9.01957 19.3946 9.20711 19.2071C9.39464 19.0196 9.5 18.7652 9.5 18.5V16.5C9.5 16.2348 9.39464 15.9804 9.20711 15.7929C9.01957 15.6054 8.76522 15.5 8.5 15.5H6.5ZM18.5 11.5H16.5C15.7044 11.5 14.9413 11.1839 14.3787 10.6213C13.8161 10.0587 13.5 9.29565 13.5 8.5V6.5C13.5 5.70435 13.8161 4.94129 14.3787 4.37868C14.9413 3.81607 15.7044 3.5 16.5 3.5H18.5C19.2956 3.5 20.0587 3.81607 20.6213 4.37868C21.1839 4.94129 21.5 5.70435 21.5 6.5V8.5C21.5 9.29565 21.1839 10.0587 20.6213 10.6213C20.0587 11.1839 19.2956 11.5 18.5 11.5ZM16.5 5.5C16.2348 5.5 15.9804 5.60536 15.7929 5.79289C15.6054 5.98043 15.5 6.23478 15.5 6.5V8.5C15.5 8.76522 15.6054 9.01957 15.7929 9.20711C15.9804 9.39464 16.2348 9.5 16.5 9.5H18.5C18.7652 9.5 19.0196 9.39464 19.2071 9.20711C19.3946 9.01957 19.5 8.76522 19.5 8.5V6.5C19.5 6.23478 19.3946 5.98043 19.2071 5.79289C19.0196 5.60536 18.7652 5.5 18.5 5.5H16.5ZM8.5 11.5H6.5C5.70435 11.5 4.94129 11.1839 4.37868 10.6213C3.81607 10.0587 3.5 9.29565 3.5 8.5V6.5C3.5 5.70435 3.81607 4.94129 4.37868 4.37868C4.94129 3.81607 5.70435 3.5 6.5 3.5H8.5C9.29565 3.5 10.0587 3.81607 10.6213 4.37868C11.1839 4.94129 11.5 5.70435 11.5 6.5V8.5C11.5 9.29565 11.1839 10.0587 10.6213 10.6213C10.0587 11.1839 9.29565 11.5 8.5 11.5ZM6.5 5.5C6.23478 5.5 5.98043 5.60536 5.79289 5.79289C5.60536 5.98043 5.5 6.23478 5.5 6.5V8.5C5.5 8.76522 5.60536 9.01957 5.79289 9.20711C5.98043 9.39464 6.23478 9.5 6.5 9.5H8.5C8.76522 9.5 9.01957 9.39464 9.20711 9.20711C9.39464 9.01957 9.5 8.76522 9.5 8.5V6.5C9.5 6.23478 9.39464 5.98043 9.20711 5.79289C9.01957 5.60536 8.76522 5.5 8.5 5.5H6.5Z" fill="black"/>
</svg>
