<svg width="25" height="25" viewBox="0 0 25 25" fill="none" xmlns="http://www.w3.org/2000/svg">
<path d="M19.5 22.4642H5.5C4.70435 22.4642 3.94129 22.1481 3.37868 21.5855C2.81607 21.0229 2.5 20.2599 2.5 19.4642L2.5 11.8002C2.49997 11.3797 2.58836 10.9638 2.75943 10.5796C2.9305 10.1955 3.18043 9.85156 3.493 9.57021L10.493 3.27021C11.0439 2.77437 11.7588 2.5 12.5 2.5C13.2412 2.5 13.9561 2.77437 14.507 3.27021L21.507 9.57021C21.8196 9.85156 22.0695 10.1955 22.2406 10.5796C22.4116 10.9638 22.5 11.3797 22.5 11.8002V19.4642C22.5 20.2599 22.1839 21.0229 21.6213 21.5855C21.0587 22.1481 20.2956 22.4642 19.5 22.4642ZM11.5 12.4642H13.5C14.2956 12.4642 15.0587 12.7803 15.6213 13.3429C16.1839 13.9055 16.5 14.6686 16.5 15.4642V20.4642H19.5C19.7652 20.4642 20.0196 20.3589 20.2071 20.1713C20.3946 19.9838 20.5 19.7294 20.5 19.4642V11.8002C20.5 11.6601 20.4705 11.5215 20.4135 11.3935C20.3564 11.2655 20.2731 11.151 20.169 11.0572L13.169 4.75721C12.9854 4.59221 12.7473 4.50093 12.5005 4.50093C12.2537 4.50093 12.0156 4.59221 11.832 4.75721L4.832 11.0572C4.72767 11.1509 4.6442 11.2654 4.587 11.3934C4.5298 11.5214 4.50016 11.66 4.5 11.8002V19.4642C4.5 19.7294 4.60536 19.9838 4.79289 20.1713C4.98043 20.3589 5.23478 20.4642 5.5 20.4642H8.5V15.4642C8.5 14.6686 8.81607 13.9055 9.37868 13.3429C9.94129 12.7803 10.7044 12.4642 11.5 12.4642ZM11.5 14.4642C11.2348 14.4642 10.9804 14.5696 10.7929 14.7571C10.6054 14.9446 10.5 15.199 10.5 15.4642V20.4642H14.5V15.4642C14.5 15.199 14.3946 14.9446 14.2071 14.7571C14.0196 14.5696 13.7652 14.4642 13.5 14.4642H11.5Z" fill="#ECC402"/>
</svg>
