<svg width="25" height="25" viewBox="0 0 25 25" fill="none" xmlns="http://www.w3.org/2000/svg">
<path d="M12.5 22.5C10.1563 22.4999 7.88721 21.6766 6.08874 20.1739C4.29027 18.6712 3.07671 16.5846 2.65995 14.2783C2.24319 11.972 2.6497 9.59261 3.8085 7.55552C4.9673 5.51842 6.80478 3.95304 9.00014 3.13266C11.1955 2.31229 13.6092 2.28905 15.82 3.067C18.0307 3.84495 19.898 5.37466 21.0958 7.38907C22.2936 9.40348 22.7459 11.7746 22.3736 14.0885C22.0013 16.4023 20.8282 18.512 19.059 20.049C18.993 20.106 18.928 20.162 18.859 20.216C17.0678 21.6908 14.8202 22.4981 12.5 22.5ZM12.5 17.5C11.7336 17.4975 10.9771 17.6722 10.2895 18.0105C9.60181 18.3487 9.00169 18.8414 8.53597 19.45C9.66481 20.0949 10.9337 20.4552 12.233 20.5C12.323 20.5 12.401 20.5 12.473 20.5H12.5C12.578 20.5 12.662 20.5 12.758 20.5C14.0596 20.4584 15.3314 20.0997 16.463 19.455C15.9979 18.8456 15.3981 18.3521 14.7106 18.0129C14.0232 17.6738 13.2666 17.4982 12.5 17.5ZM12.5 15.5C13.5768 15.4964 14.6398 15.743 15.6052 16.2202C16.5705 16.6974 17.4119 17.3922 18.063 18.25C19.0124 17.3313 19.7195 16.1918 20.1212 14.9332C20.5229 13.6746 20.6066 12.3361 20.365 11.0373C20.1233 9.73842 19.5637 8.51965 18.7361 7.48979C17.9086 6.45994 16.8389 5.65106 15.6225 5.13539C14.4062 4.61972 13.0811 4.41332 11.7655 4.53461C10.4499 4.6559 9.18488 5.10112 8.08332 5.8305C6.98177 6.55987 6.07799 7.55071 5.45271 8.71451C4.82743 9.87831 4.5001 11.1789 4.49997 12.5C4.49637 13.5735 4.71058 14.6366 5.12963 15.6249C5.54868 16.6132 6.16386 17.5063 6.93797 18.25C7.58878 17.3922 8.42994 16.6973 9.39515 16.2201C10.3604 15.7428 11.4232 15.4963 12.5 15.5ZM12.5 14.5C11.7088 14.5 10.9355 14.2654 10.2777 13.8259C9.61989 13.3864 9.1072 12.7616 8.80445 12.0307C8.5017 11.2998 8.42249 10.4956 8.57683 9.71964C8.73117 8.94371 9.11213 8.23098 9.67154 7.67157C10.231 7.11216 10.9437 6.7312 11.7196 6.57686C12.4955 6.42252 13.2998 6.50173 14.0307 6.80448C14.7616 7.10723 15.3863 7.61992 15.8258 8.27772C16.2654 8.93552 16.5 9.70887 16.5 10.5C16.5 11.5609 16.0785 12.5783 15.3284 13.3284C14.5782 14.0786 13.5608 14.5 12.5 14.5ZM12.5 8.5C12.1044 8.5 11.7177 8.6173 11.3888 8.83706C11.0599 9.05682 10.8036 9.36918 10.6522 9.73463C10.5008 10.1001 10.4612 10.5022 10.5384 10.8902C10.6156 11.2781 10.806 11.6345 11.0858 11.9142C11.3655 12.1939 11.7218 12.3844 12.1098 12.4616C12.4977 12.5387 12.8999 12.4991 13.2653 12.3478C13.6308 12.1964 13.9431 11.94 14.1629 11.6111C14.3827 11.2822 14.5 10.8956 14.5 10.5C14.5 9.96957 14.2893 9.46086 13.9142 9.08579C13.5391 8.71071 13.0304 8.5 12.5 8.5Z" fill="black"/>
</svg>
