<svg width="20" height="19" viewBox="0 0 20 19" fill="none" xmlns="http://www.w3.org/2000/svg">
<path d="M15.9 14.5H8.062C7.39278 14.5001 6.74273 14.2764 6.21526 13.8646C5.68779 13.4527 5.31318 12.8763 5.151 12.227L2.908 3.258C2.85402 3.04157 2.72922 2.8494 2.55346 2.71205C2.3777 2.5747 2.16106 2.50006 1.938 2.5H1.5C1.23478 2.5 0.98043 2.39464 0.792893 2.20711C0.605357 2.01957 0.5 1.76522 0.5 1.5C0.5 1.23478 0.605357 0.98043 0.792893 0.792893C0.98043 0.605357 1.23478 0.5 1.5 0.5H1.938C2.60722 0.499906 3.25727 0.72358 3.78474 1.13545C4.31221 1.54731 4.68682 2.12372 4.849 2.773L5.031 3.5H17.007C17.4563 3.49993 17.8999 3.60078 18.305 3.7951C18.7101 3.98942 19.0664 4.27225 19.3475 4.62271C19.6287 4.97317 19.8275 5.38231 19.9294 5.81991C20.0312 6.25751 20.0335 6.71241 19.936 7.151L18.825 12.151C18.6799 12.8182 18.3103 13.4153 17.778 13.8429C17.2456 14.2704 16.5827 14.5023 15.9 14.5ZM5.531 5.5L7.092 11.742C7.14617 11.9582 7.27105 12.1502 7.44679 12.2873C7.62254 12.4245 7.83907 12.499 8.062 12.499H15.9C16.1278 12.5001 16.349 12.4229 16.5267 12.2803C16.7043 12.1378 16.8277 11.9386 16.876 11.716L17.987 6.716C18.0194 6.56957 18.0184 6.41773 17.9842 6.27172C17.95 6.1257 17.8833 5.98926 17.7892 5.87249C17.6951 5.75572 17.5759 5.66161 17.4405 5.59714C17.3051 5.53266 17.157 5.49946 17.007 5.5H5.531Z" fill="black"/>
<path d="M9.5 17C9.5 16.7033 9.41203 16.4133 9.24721 16.1666C9.08238 15.92 8.84811 15.7277 8.57403 15.6142C8.29994 15.5006 7.99834 15.4709 7.70737 15.5288C7.41639 15.5867 7.14912 15.7296 6.93934 15.9393C6.72956 16.1491 6.5867 16.4164 6.52882 16.7074C6.47094 16.9983 6.50065 17.2999 6.61418 17.574C6.72771 17.8481 6.91997 18.0824 7.16665 18.2472C7.41332 18.412 7.70333 18.5 8 18.5C8.39783 18.5 8.77936 18.342 9.06066 18.0607C9.34197 17.7794 9.5 17.3978 9.5 17Z" fill="black"/>
<path d="M17.5 17C17.5 16.7033 17.412 16.4133 17.2472 16.1666C17.0824 15.92 16.8481 15.7277 16.574 15.6142C16.2999 15.5006 15.9983 15.4709 15.7074 15.5288C15.4164 15.5867 15.1491 15.7296 14.9393 15.9393C14.7296 16.1491 14.5867 16.4164 14.5288 16.7074C14.4709 16.9983 14.5006 17.2999 14.6142 17.574C14.7277 17.8481 14.92 18.0824 15.1666 18.2472C15.4133 18.412 15.7033 18.5 16 18.5C16.3978 18.5 16.7794 18.342 17.0607 18.0607C17.342 17.7794 17.5 17.3978 17.5 17Z" fill="black"/>
</svg>
