<svg width="24" height="24" viewBox="0 0 24 24" fill="none" xmlns="http://www.w3.org/2000/svg">
<g clip-path="url(#clip0_106_7861)">
<path d="M24 0H0V24H24V0Z" fill="white"/>
<path d="M4.75 5V19C4.75 19.3315 4.8817 19.6495 5.11612 19.8839C5.35054 20.1183 5.66848 20.25 6 20.25H18C18.3315 20.25 18.6495 20.1183 18.8839 19.8839C19.1183 19.6495 19.25 19.3315 19.25 19V12C19.25 11.8011 19.329 11.6103 19.4697 11.4697C19.6103 11.329 19.8011 11.25 20 11.25C20.1989 11.25 20.3897 11.329 20.5303 11.4697C20.671 11.6103 20.75 11.8011 20.75 12V19C20.75 19.7293 20.4603 20.4288 19.9445 20.9445C19.4288 21.4603 18.7293 21.75 18 21.75H6C5.27065 21.75 4.57118 21.4603 4.05546 20.9445C3.53973 20.4288 3.25 19.7293 3.25 19V5C3.25 4.27065 3.53973 3.57118 4.05546 3.05546C4.57118 2.53973 5.27065 2.25 6 2.25H12C12.1989 2.25 12.3897 2.32902 12.5303 2.46967C12.671 2.61032 12.75 2.80109 12.75 3C12.75 3.19891 12.671 3.38968 12.5303 3.53033C12.3897 3.67098 12.1989 3.75 12 3.75H6C5.66848 3.75 5.35054 3.8817 5.11612 4.11612C4.8817 4.35054 4.75 4.66848 4.75 5Z" fill="black"/>
<path d="M8.30001 16.6709C8.15677 16.6709 8.01521 16.6402 7.8849 16.5807C7.75459 16.5212 7.63857 16.4345 7.5447 16.3263C7.45083 16.2181 7.3813 16.091 7.34081 15.9536C7.30032 15.8162 7.28981 15.6717 7.31001 15.5299L7.78201 12.2299C7.81348 12.016 7.91307 11.8179 8.06601 11.6649L15.607 4.12094C15.8856 3.84234 16.2164 3.62135 16.5804 3.47057C16.9444 3.31979 17.3345 3.24219 17.7285 3.24219C18.1225 3.24219 18.5126 3.31979 18.8767 3.47057C19.2407 3.62135 19.5714 3.84234 19.85 4.12094C20.1286 4.39954 20.3496 4.73029 20.5004 5.09429C20.6512 5.4583 20.7288 5.84844 20.7288 6.24244C20.7288 6.63644 20.6512 7.02658 20.5004 7.39059C20.3496 7.7546 20.1286 8.08534 19.85 8.36394L12.308 15.9069C12.1547 16.0596 11.9562 16.1589 11.742 16.1899L8.44201 16.6619C8.39494 16.6682 8.34749 16.6712 8.30001 16.6709ZM14.723 7.12594L9.24301 12.6059L8.88901 15.0809L11.364 14.7269L16.844 9.24294L14.723 7.12594ZM17.728 4.74294C17.5311 4.74233 17.336 4.78081 17.154 4.85617C16.972 4.93153 16.8068 5.04226 16.668 5.18194L15.783 6.06594L17.9 8.18794L18.785 7.30394C18.9947 7.0944 19.1376 6.82743 19.1956 6.53674C19.2537 6.24605 19.2243 5.94468 19.1112 5.67067C18.9981 5.39666 18.8064 5.1623 18.5602 4.99718C18.314 4.83207 18.0244 4.7436 17.728 4.74294Z" fill="black"/>
</g>
<defs>
<clipPath id="clip0_106_7861">
<rect width="24" height="24" fill="white"/>
</clipPath>
</defs>
</svg>
