<svg width="24" height="24" viewBox="0 0 24 24" fill="none" xmlns="http://www.w3.org/2000/svg">
<g clip-path="url(#clip0_151_2355)">
<path d="M24 0H0V24H24V0Z" fill="white"/>
<path d="M19 20.75H18C17.271 20.7489 16.5721 20.4589 16.0566 19.9434C15.5411 19.4279 15.2511 18.729 15.25 18V15C15.2511 14.271 15.5411 13.5721 16.0566 13.0566C16.5721 12.5411 17.271 12.2511 18 12.25H20.25V12C20.25 9.81196 19.3808 7.71354 17.8336 6.16637C16.2865 4.61919 14.188 3.75 12 3.75C9.81196 3.75 7.71354 4.61919 6.16637 6.16637C4.61919 7.71354 3.75 9.81196 3.75 12V12.25H6C6.7291 12.2508 7.42811 12.5408 7.94367 13.0563C8.45922 13.5719 8.74921 14.2709 8.75 15V18C8.74921 18.7291 8.45922 19.4281 7.94367 19.9437C7.42811 20.4592 6.7291 20.7492 6 20.75H5C4.27098 20.7489 3.57212 20.4589 3.05663 19.9434C2.54113 19.4279 2.25106 18.729 2.25 18V12C2.25 9.41414 3.27723 6.93419 5.10571 5.10571C6.93419 3.27723 9.41414 2.25 12 2.25C14.5859 2.25 17.0658 3.27723 18.8943 5.10571C20.7228 6.93419 21.75 9.41414 21.75 12V18C21.7489 18.729 21.4589 19.4279 20.9434 19.9434C20.4279 20.4589 19.729 20.7489 19 20.75ZM18 13.75C17.6686 13.7505 17.351 13.8824 17.1167 14.1167C16.8824 14.351 16.7505 14.6686 16.75 15V18C16.7505 18.3314 16.8824 18.649 17.1167 18.8833C17.351 19.1176 17.6686 19.2495 18 19.25H19C19.3314 19.2495 19.649 19.1176 19.8833 18.8833C20.1176 18.649 20.2495 18.3314 20.25 18V13.75H18ZM3.75 13.75V18C3.75053 18.3314 3.88239 18.649 4.1167 18.8833C4.35101 19.1176 4.66864 19.2495 5 19.25H6C6.33136 19.2495 6.64899 19.1176 6.8833 18.8833C7.11761 18.649 7.24947 18.3314 7.25 18V15C7.24947 14.6686 7.11761 14.351 6.8833 14.1167C6.64899 13.8824 6.33136 13.7505 6 13.75H3.75Z" fill="black"/>
</g>
<defs>
<clipPath id="clip0_151_2355">
<rect width="24" height="24" fill="white"/>
</clipPath>
</defs>
</svg>
