<svg width="24" height="24" viewBox="0 0 24 24" fill="none" xmlns="http://www.w3.org/2000/svg">
<g clip-path="url(#clip0_106_7903)">
<path d="M12 13C11.4067 13 10.8266 12.8241 10.3333 12.4944C9.83994 12.1648 9.45543 11.6962 9.22836 11.1481C9.0013 10.5999 8.94189 9.99667 9.05765 9.41473C9.1734 8.83279 9.45912 8.29824 9.87868 7.87868C10.2982 7.45912 10.8328 7.1734 11.4147 7.05765C11.9967 6.94189 12.5999 7.0013 13.1481 7.22836C13.6962 7.45543 14.1648 7.83994 14.4944 8.33329C14.8241 8.82664 15 9.40666 15 10C15 10.7957 14.6839 11.5587 14.1213 12.1213C13.5587 12.6839 12.7957 13 12 13ZM12 8.5C11.7033 8.5 11.4133 8.58797 11.1666 8.7528C10.92 8.91762 10.7277 9.15189 10.6142 9.42598C10.5007 9.70007 10.4709 10.0017 10.5288 10.2926C10.5867 10.5836 10.7296 10.8509 10.9393 11.0607C11.1491 11.2704 11.4164 11.4133 11.7074 11.4712C11.9983 11.5291 12.2999 11.4994 12.574 11.3858C12.8481 11.2723 13.0824 11.08 13.2472 10.8334C13.412 10.5867 13.5 10.2967 13.5 10C13.5 9.60218 13.342 9.22065 13.0607 8.93934C12.7794 8.65804 12.3978 8.5 12 8.5Z" fill="black"/>
<path d="M12 22.0719C11.7465 22.0714 11.4962 22.0142 11.2677 21.9045C11.0391 21.7948 10.838 21.6354 10.679 21.4379C9.24699 19.6859 7.57899 17.5379 5.73399 15.0639L5.72799 15.0559C4.5807 13.6346 3.9581 11.8615 3.96499 10.0349C3.96408 8.75053 4.271 7.48463 4.86004 6.34328C5.44909 5.20193 6.30309 4.21837 7.35051 3.47502C8.39793 2.73167 9.60824 2.25018 10.8801 2.07088C12.1519 1.89159 13.4481 2.01971 14.6602 2.44452C15.8723 2.86933 16.965 3.57846 17.8466 4.51248C18.7282 5.4465 19.3731 6.57821 19.7273 7.81279C20.0815 9.04737 20.1347 10.3489 19.8823 11.6082C19.63 12.8676 19.0795 14.0481 18.277 15.0509V15.0559C18.236 15.1169 17.913 15.5489 17.377 16.2559C16.483 17.4349 14.768 19.6749 13.326 21.4389C13.1664 21.6369 12.9644 21.7965 12.7349 21.9061C12.5054 22.0156 12.2543 22.0723 12 22.0719ZM12 3.49991C10.2674 3.50177 8.60624 4.19087 7.3811 5.41602C6.15595 6.64117 5.46684 8.30229 5.46499 10.0349C5.45927 11.5197 5.96494 12.9611 6.89699 14.1169C6.90999 14.1329 6.92299 14.1489 6.93599 14.1669L7.05799 14.3299L7.14599 14.4479L7.40099 14.7869C7.70099 15.1869 8.10899 15.7239 8.58899 16.3509C9.86499 18.0209 10.965 19.4129 11.841 20.4899C11.8596 20.5148 11.8838 20.5349 11.9115 20.5488C11.9393 20.5627 11.9699 20.5699 12.001 20.5699C12.032 20.5699 12.0627 20.5627 12.0904 20.5488C12.1182 20.5349 12.1424 20.5148 12.161 20.4899C13.269 19.1349 14.545 17.4899 15.42 16.3449C15.886 15.7349 16.309 15.1789 16.61 14.7789L16.865 14.4399L16.953 14.3219L17.012 14.2449C17.0399 14.2012 17.0703 14.1591 17.103 14.1189C18.0349 12.9627 18.5405 11.5209 18.535 10.0359C18.5334 8.30312 17.8444 6.64174 16.6192 5.41637C15.3941 4.19101 13.7328 3.50177 12 3.49991Z" fill="black"/>
</g>
<defs>
<clipPath id="clip0_106_7903">
<rect width="24" height="24" fill="white"/>
</clipPath>
</defs>
</svg>
