<svg width="24" height="24" viewBox="0 0 24 24" fill="none" xmlns="http://www.w3.org/2000/svg">
<g clip-path="url(#clip0_106_7908)">
<path d="M12 17.75C11.8012 17.7498 11.6106 17.6707 11.47 17.5301C11.3294 17.3895 11.2503 17.1989 11.25 17V15.855C10.8197 15.681 10.4634 15.3627 10.2421 14.9547C10.0207 14.5468 9.94817 14.0745 10.0368 13.6189C10.1255 13.1634 10.3698 12.7528 10.728 12.4576C11.0862 12.1624 11.5359 12.001 12 12.001C12.4641 12.001 12.9138 12.1624 13.272 12.4576C13.6302 12.7528 13.8745 13.1634 13.9632 13.6189C14.0518 14.0745 13.9793 14.5468 13.7579 14.9547C13.5366 15.3627 13.1803 15.681 12.75 15.855V17C12.7497 17.1989 12.6706 17.3895 12.53 17.5301C12.3894 17.6707 12.1988 17.7498 12 17.75ZM12 13.5C11.9011 13.5 11.8044 13.5294 11.7222 13.5843C11.64 13.6392 11.5759 13.7173 11.5381 13.8087C11.5002 13.9 11.4903 14.0006 11.5096 14.0976C11.5289 14.1946 11.5765 14.2837 11.6464 14.3536C11.7164 14.4235 11.8055 14.4711 11.9025 14.4904C11.9994 14.5097 12.1 14.4998 12.1913 14.462C12.2827 14.4241 12.3608 14.36 12.4157 14.2778C12.4707 14.1956 12.5 14.0989 12.5 14C12.5 13.8674 12.4473 13.7402 12.3536 13.6465C12.2598 13.5527 12.1326 13.5 12 13.5Z" fill="black"/>
<path d="M17 22H7C6.20435 22 5.44129 21.6839 4.87868 21.1213C4.31607 20.5587 4 19.7956 4 19V11C4 10.2044 4.31607 9.44129 4.87868 8.87868C5.44129 8.31607 6.20435 8 7 8H7.25V7C7.25 5.74022 7.75045 4.53204 8.64124 3.64124C9.53204 2.75044 10.7402 2.25 12 2.25C13.2598 2.25 14.468 2.75044 15.3588 3.64124C16.2496 4.53204 16.75 5.74022 16.75 7V8H17C17.7956 8 18.5587 8.31607 19.1213 8.87868C19.6839 9.44129 20 10.2044 20 11V19C20 19.7956 19.6839 20.5587 19.1213 21.1213C18.5587 21.6839 17.7956 22 17 22ZM7 9.5C6.60218 9.5 6.22064 9.65804 5.93934 9.93934C5.65804 10.2206 5.5 10.6022 5.5 11V19C5.5 19.3978 5.65804 19.7794 5.93934 20.0607C6.22064 20.342 6.60218 20.5 7 20.5H17C17.3978 20.5 17.7794 20.342 18.0607 20.0607C18.342 19.7794 18.5 19.3978 18.5 19V11C18.5 10.6022 18.342 10.2206 18.0607 9.93934C17.7794 9.65804 17.3978 9.5 17 9.5H7ZM12 3.75C11.1384 3.75106 10.3123 4.09381 9.70307 4.70307C9.09381 5.31234 8.75106 6.13837 8.75 7V8H15.25V7C15.2489 6.13837 14.9062 5.31234 14.2969 4.70307C13.6877 4.09381 12.8616 3.75106 12 3.75Z" fill="black"/>
</g>
<defs>
<clipPath id="clip0_106_7908">
<rect width="24" height="24" fill="white"/>
</clipPath>
</defs>
</svg>
