<svg width="24" height="24" viewBox="0 0 24 24" fill="none" xmlns="http://www.w3.org/2000/svg">
<g clip-path="url(#clip0_352_2513)">
<path d="M24 0H0V24H24V0Z" fill="white"/>
<path d="M6 2.25H12C12.7293 2.25 13.4288 2.53973 13.9445 3.05546C14.4603 3.57118 14.75 4.27065 14.75 5V6C14.75 6.19891 14.671 6.38968 14.5303 6.53033C14.3897 6.67098 14.1989 6.75 14 6.75C13.8011 6.75 13.6103 6.67098 13.4697 6.53033C13.329 6.38968 13.25 6.19891 13.25 6V5C13.25 4.66848 13.1183 4.35054 12.8839 4.11612C12.6495 3.8817 12.3315 3.75 12 3.75H6C5.66848 3.75 5.35054 3.8817 5.11612 4.11612C4.8817 4.35054 4.75 4.66848 4.75 5V19C4.75 19.3315 4.8817 19.6495 5.11612 19.8839C5.35054 20.1183 5.66848 20.25 6 20.25H12C12.3315 20.25 12.6495 20.1183 12.8839 19.8839C13.1183 19.6495 13.25 19.3315 13.25 19V18C13.25 17.8011 13.329 17.6103 13.4697 17.4697C13.6103 17.329 13.8011 17.25 14 17.25C14.1989 17.25 14.3897 17.329 14.5303 17.4697C14.671 17.6103 14.75 17.8011 14.75 18V19C14.75 19.7293 14.4603 20.4288 13.9445 20.9445C13.4288 21.4603 12.7293 21.75 12 21.75H6C5.27065 21.75 4.57118 21.4603 4.05546 20.9445C3.53973 20.4288 3.25 19.7293 3.25 19V5C3.25 4.27065 3.53973 3.57118 4.05546 3.05546C4.57118 2.53973 5.27065 2.25 6 2.25Z" fill="black"/>
<path d="M16.47 7.96934C16.4003 8.03899 16.345 8.12169 16.3073 8.21272C16.2696 8.30374 16.2502 8.40131 16.2502 8.49984C16.2502 8.59837 16.2696 8.69594 16.3073 8.78696C16.345 8.87799 16.4003 8.96069 16.47 9.03034L18.69 11.2503H8.99999C8.80595 11.2574 8.62222 11.3395 8.48745 11.4793C8.35268 11.6191 8.27737 11.8057 8.27737 11.9998C8.27737 12.194 8.35268 12.3806 8.48745 12.5204C8.62222 12.6602 8.80595 12.7423 8.99999 12.7493H18.689L16.47 14.9693C16.3375 15.1115 16.2654 15.2996 16.2688 15.4939C16.2722 15.6882 16.351 15.8735 16.4884 16.011C16.6258 16.1484 16.8112 16.2271 17.0055 16.2305C17.1998 16.2339 17.3878 16.1618 17.53 16.0293L20.323 13.2363C20.4855 13.0738 20.6144 12.8809 20.7024 12.6686C20.7903 12.4562 20.8356 12.2287 20.8356 11.9988C20.8356 11.769 20.7903 11.5414 20.7024 11.3291C20.6144 11.1168 20.4855 10.9238 20.323 10.7613L17.53 7.96934C17.3894 7.82889 17.1987 7.75 17 7.75C16.8012 7.75 16.6106 7.82889 16.47 7.96934Z" fill="black"/>
</g>
<defs>
<clipPath id="clip0_352_2513">
<rect width="24" height="24" fill="white"/>
</clipPath>
</defs>
</svg>
