<svg width="36" height="36" viewBox="0 0 36 36" fill="none" xmlns="http://www.w3.org/2000/svg">
<rect width="36" height="36" rx="8" fill="#FFDF01"/>
<g clip-path="url(#clip0_1039_1585)">
<path d="M18 26.394C17.6343 26.3951 17.2721 26.3227 16.9349 26.1812C16.5977 26.0396 16.2923 25.8318 16.037 25.57L9.85 19.267C8.82505 18.2119 8.25171 16.7989 8.25171 15.328C8.25171 13.857 8.82505 12.444 9.85 11.389C10.3554 10.8703 10.9595 10.458 11.6267 10.1765C12.294 9.89502 13.0108 9.75 13.735 9.75C14.4592 9.75 15.176 9.89502 15.8433 10.1765C16.5105 10.458 17.1146 10.8703 17.62 11.389L17.998 11.774L18.377 11.389C18.8824 10.8703 19.4865 10.458 20.1537 10.1765C20.821 9.89502 21.5378 9.75 22.262 9.75C22.9862 9.75 23.703 9.89502 24.3703 10.1765C25.0375 10.458 25.6416 10.8703 26.147 11.389C27.1719 12.444 27.7453 13.857 27.7453 15.328C27.7453 16.7989 27.1719 18.2119 26.147 19.267L19.961 25.567C19.7062 25.8292 19.4013 26.0375 19.0645 26.1796C18.7276 26.3216 18.3656 26.3945 18 26.394ZM13.737 11.25C13.2122 11.2496 12.6927 11.3547 12.2093 11.5589C11.7259 11.7631 11.2885 12.0624 10.923 12.439C10.1713 13.2126 9.75081 14.2488 9.75081 15.3275C9.75081 16.4061 10.1713 17.4423 10.923 18.216L17.108 24.516C17.2244 24.6346 17.3632 24.7289 17.5165 24.7933C17.6697 24.8576 17.8343 24.8908 18.0005 24.8908C18.1667 24.8908 18.3313 24.8576 18.4845 24.7933C18.6378 24.7289 18.7766 24.6346 18.893 24.516L25.078 18.216C25.8292 17.4421 26.2494 16.406 26.2494 15.3275C26.2494 14.2489 25.8292 13.2128 25.078 12.439C24.7123 12.0625 24.2747 11.7632 23.7913 11.5589C23.3079 11.3545 22.7884 11.2493 22.2635 11.2493C21.7386 11.2493 21.2191 11.3545 20.7357 11.5589C20.2523 11.7632 19.8147 12.0625 19.449 12.439L18.536 13.37C18.4661 13.4409 18.3828 13.4972 18.291 13.5357C18.1991 13.5741 18.1006 13.5939 18.001 13.5939C17.9014 13.5939 17.8029 13.5741 17.711 13.5357C17.6192 13.4972 17.5359 13.4409 17.466 13.37L16.55 12.439C16.1846 12.0625 15.7473 11.7633 15.2641 11.5591C14.7809 11.3549 14.2616 11.2497 13.737 11.25Z" fill="black"/>
</g>
<defs>
<clipPath id="clip0_1039_1585">
<rect width="24" height="24" fill="white" transform="translate(6 6)"/>
</clipPath>
</defs>
</svg>
